<?xml version="1.0" encoding="UTF-8" standalone="no"?>
<!DOCTYPE svg PUBLIC "-//W3C//DTD SVG 1.1//EN" "http://www.w3.org/Graphics/SVG/1.1/DTD/svg11.dtd">
<svg width="100%" height="100%" viewBox="0 0 1000 1000" version="1.1" xmlns="http://www.w3.org/2000/svg" xmlns:xlink="http://www.w3.org/1999/xlink" xml:space="preserve" xmlns:serif="http://www.serif.com/" style="fill-rule:evenodd;clip-rule:evenodd;stroke-linejoin:round;stroke-miterlimit:2;">
    <g transform="matrix(-1.66945,2.04449e-16,-2.04449e-16,-1.66945,2589.32,2388.92)">
        <g>
            <path d="M1022.9,969.661C1011,957.804 993.137,954.273 977.624,960.714C962.111,967.155 952,982.301 952,999.098L952,1260.43C952,1278.34 962.629,1294.54 979.058,1301.67C995.487,1308.81 1014.58,1305.51 1027.67,1293.28C1066.19,1257.27 1105,1221 1105,1221L1037,1155L1037,1104C1037,1104 1157.77,1228.74 1217.43,1290.36C1235.58,1309.1 1265.33,1310.03 1284.6,1292.46C1317.83,1262.18 1363,1221 1363,1221L1293,1155L1250,1196C1250,1196 1111.04,1057.5 1022.9,969.661ZM1480.1,1293.27C1492,1305.13 1509.86,1308.66 1525.38,1302.21C1540.89,1295.77 1551,1280.63 1551,1263.83L1551,1002.5C1551,984.591 1540.37,968.389 1523.94,961.256C1507.51,954.124 1488.42,957.422 1475.33,969.652C1436.81,1005.66 1398,1041.93 1398,1041.93L1466,1107.93L1466,1158.93C1466,1158.93 1345.23,1034.19 1285.57,972.568C1267.42,953.828 1237.67,952.899 1218.4,970.47C1185.17,1000.75 1140,1041.93 1140,1041.93L1210,1107.93L1253,1066.93C1253,1066.93 1391.96,1205.43 1480.1,1293.27Z" style="fill:white;"/>
        </g>
    </g>
</svg>
